<?xml version="1.0" standalone="no"?>
<!DOCTYPE svg PUBLIC "-//W3C//DTD SVG 20010904//EN"
 "http://www.w3.org/TR/2001/REC-SVG-20010904/DTD/svg10.dtd">
<svg version="1.0" xmlns="http://www.w3.org/2000/svg"
 width="512.000000pt" height="512.000000pt" viewBox="0 0 512.000000 512.000000"
 preserveAspectRatio="xMidYMid meet">
<metadata>
Created by potrace 1.11, written by Peter Selinger 2001-2013
</metadata>
<g transform="translate(0.000000,512.000000) scale(0.100000,-0.100000)"
fill="#000000" stroke="none">
<path d="M2808 5078 l-3 -43 -119 -1 -120 -1 0 -39 -1 -39 -119 -1 -120 -1 0
-39 -1 -39 -79 -1 -80 -1 0 -39 -1 -39 -79 -1 -80 -1 0 -39 -1 -39 -79 -1 -80
-1 0 -39 -1 -39 -79 -1 -80 -1 0 -39 -1 -39 -80 -1 -80 -1 3 -36 c3 -31 0 -37
-21 -42 -13 -4 -33 -5 -43 -3 -16 2 -19 -3 -18 -35 1 -31 -2 -38 -21 -43 -12
-3 -31 -4 -41 -2 -16 2 -19 -3 -18 -35 1 -31 -2 -38 -21 -43 -12 -3 -30 -4
-40 -2 -16 3 -18 -5 -16 -74 2 -74 1 -78 -22 -83 -13 -4 -32 -5 -42 -3 -16 3
-18 -5 -16 -74 2 -74 1 -78 -22 -83 -13 -4 -32 -5 -41 -3 -15 3 -17 -32 -16
-434 l0 -438 -23 -6 c-14 -3 -32 -4 -42 -2 -15 2 -18 -4 -19 -37 -1 -39 -2
-40 -39 -40 l-37 -1 0 -514 0 -514 37 -1 c37 0 38 -1 39 -39 1 -39 1 -40 40
-40 l39 -1 0 -205 0 -205 -38 -1 -38 -1 -2 -159 -2 -159 -125 0 -125 0 0 38 0
38 -115 0 -115 0 3 -35 c3 -30 0 -36 -21 -41 -13 -4 -33 -5 -43 -3 -15 2 -18
-2 -16 -19 6 -40 -16 -65 -51 -61 -28 3 -32 0 -29 -19 5 -39 -16 -65 -50 -61
l-31 3 2 -77 c2 -74 1 -78 -22 -83 -13 -4 -33 -5 -43 -3 -15 2 -18 -2 -16 -19
6 -40 -16 -65 -51 -61 -28 3 -32 0 -29 -19 5 -39 -16 -65 -51 -61 -23 2 -31
-2 -29 -11 2 -8 0 -27 -3 -42 -6 -26 -11 -29 -46 -29 l-39 0 0 -315 0 -315
560 0 560 0 0 79 0 80 -37 3 -38 3 -3 77 -3 77 -37 3 c-35 3 -37 5 -40 40 -3
35 -5 37 -40 40 l-37 3 -5 115 -5 115 -37 3 -38 3 0 79 0 79 37 3 38 3 5 75 5
75 37 3 37 3 3 77 3 77 77 3 77 3 3 -38 c3 -36 5 -38 40 -41 35 -3 37 -5 40
-40 3 -35 5 -37 40 -40 l37 -3 3 -77 3 -77 37 -3 37 -3 3 -117 3 -117 37 -3
c35 -3 37 -5 40 -40 3 -35 5 -37 40 -40 l37 -3 3 -77 3 -77 37 -3 c35 -3 37
-5 40 -40 3 -35 5 -37 40 -40 35 -3 37 -5 40 -40 3 -35 5 -37 40 -40 35 -3 37
-5 40 -40 3 -35 5 -37 41 -40 36 -3 37 -4 37 -43 l0 -39 560 0 560 0 0 40 0
40 40 0 40 0 0 -40 0 -40 675 0 675 0 0 30 c0 17 0 33 0 37 0 4 -13 6 -29 5
-34 -4 -54 18 -49 55 2 23 -1 27 -16 25 -10 -2 -30 -1 -43 3 -21 5 -24 11 -21
41 l3 36 -120 1 -120 2 0 38 0 38 -320 2 -320 2 0 165 0 165 39 1 c39 0 39 1
40 40 1 38 2 39 40 40 39 0 39 1 40 40 1 38 2 39 40 40 l38 1 2 79 1 79 39 1
c39 0 39 1 40 40 1 38 2 39 40 40 l38 1 2 79 1 79 38 1 38 1 2 119 2 119 38 1
39 1 1 79 2 79 39 1 38 1 2 79 1 79 38 1 39 1 1 119 2 119 39 1 38 1 -1 116
c-2 115 -2 116 22 122 13 4 32 5 41 3 15 -3 17 16 19 197 l2 200 38 1 39 0 1
120 2 119 38 0 37 1 0 514 0 514 -37 1 -38 0 -2 120 -1 119 -39 1 c-37 0 -38
1 -38 39 -1 39 -1 40 -40 40 l-40 1 -1 80 c-2 70 -4 80 -19 77 -10 -2 -28 -1
-42 3 -22 5 -23 9 -21 82 l2 76 -39 1 c-40 1 -40 1 -40 40 0 39 0 40 -40 40
-40 1 -40 1 -40 40 -1 39 -1 40 -40 40 -40 1 -40 1 -40 41 0 34 -3 39 -19 37
-10 -2 -30 -1 -43 3 -21 5 -24 11 -21 42 l3 36 -80 1 -80 1 -1 39 0 39 -120 1
-119 1 -1 39 0 39 -80 1 -79 1 -3 43 -3 42 -189 0 -189 0 -3 -42z m550 -640
l3 -37 77 -3 77 -3 3 -37 3 -37 77 -3 77 -3 5 -35 c4 -31 9 -36 40 -40 32 -5
35 -8 38 -42 3 -37 4 -38 43 -38 39 0 39 0 39 -40 l0 -40 40 0 c40 0 40 0 40
-39 0 -39 1 -40 38 -43 l37 -3 5 -75 5 -75 35 -5 35 -5 3 -277 2 -278 -79 0
-80 0 -3 38 -3 37 -117 3 -117 3 -3 37 -3 37 -150 -2 c-82 -1 -153 -3 -157 -3
-4 0 -8 -15 -10 -32 -3 -29 -7 -34 -38 -38 -32 -5 -35 -8 -38 -42 l-3 -37 -77
-3 -77 -3 -3 -37 c-3 -35 -5 -37 -40 -40 -35 -3 -37 -5 -40 -40 l-3 -37 -77
-3 -77 -3 0 -35 c0 -33 2 -35 38 -38 20 -2 38 -9 38 -15 1 -7 2 -23 3 -37 1
-19 7 -25 26 -26 14 -1 31 -2 38 -3 9 -1 12 -32 12 -121 0 -117 0 -120 -22
-121 -13 -1 -30 -2 -38 -3 -11 -1 -16 -17 -18 -70 -3 -75 3 -86 51 -86 l27 0
0 -200 c0 -153 -3 -200 -12 -201 -7 -1 -24 -2 -38 -3 -19 -1 -25 -7 -26 -26
-1 -14 -2 -31 -3 -37 -1 -10 -48 -13 -200 -13 l-200 0 -3 38 -3 37 -115 0
-115 0 0 -75 0 -75 35 -5 c31 -4 36 -9 40 -40 l5 -35 77 -3 77 -3 3 -77 3 -77
77 -3 77 -3 3 -37 c3 -35 5 -37 41 -40 l37 -3 0 -79 0 -79 -37 -3 c-36 -3 -38
-5 -41 -40 l-3 -38 -80 0 -79 0 0 34 0 33 -61 7 c-34 3 -106 6 -160 6 l-99 0
0 35 c0 21 -5 35 -12 36 -7 0 -24 2 -38 3 -14 1 -44 3 -67 4 -41 2 -42 3 -45
39 l-3 38 -77 3 -77 3 -3 37 c-3 35 -5 37 -40 40 -37 3 -38 4 -38 42 0 38 1
39 38 42 35 3 37 5 40 40 3 35 5 37 40 40 34 3 37 6 42 38 4 31 9 36 40 40 31
4 36 9 40 40 4 31 9 36 40 40 l35 5 0 75 0 75 -35 0 c-33 0 -35 -2 -38 -37 -3
-35 -5 -37 -40 -40 -35 -3 -37 -5 -40 -40 l-3 -37 -77 -3 -77 -3 -3 -37 c-3
-35 -5 -37 -40 -40 -35 -3 -37 -5 -40 -40 -3 -35 -5 -37 -40 -40 -35 -3 -37
-5 -40 -40 -3 -35 -5 -37 -40 -40 -35 -3 -37 -5 -37 -38 0 -33 2 -35 37 -38
l37 -3 3 -77 3 -77 37 -3 c35 -3 37 -5 40 -40 l3 -37 115 3 c63 1 152 0 198
-4 81 -6 82 -6 82 -32 0 -30 12 -54 26 -51 5 1 73 1 152 0 l142 -1 0 -24 c0
-56 0 -56 165 -56 l154 0 3 -37 c3 -36 5 -38 41 -41 36 -3 37 -4 37 -42 l0
-40 -317 -2 -318 -3 0 -75 0 -75 38 -3 c35 -3 37 -5 37 -38 0 -20 5 -34 13
-35 6 0 23 -2 37 -3 14 -1 62 -3 108 -4 l82 -2 0 -34 0 -34 163 -7 c89 -4 196
-5 237 -3 l75 3 3 37 c3 37 4 38 43 38 l39 0 0 -119 0 -120 -37 -3 c-36 -3
-38 -5 -41 -40 -3 -35 -5 -37 -40 -40 -35 -3 -37 -5 -40 -40 -3 -35 -5 -37
-40 -40 -35 -3 -37 -5 -40 -40 l-3 -38 -239 0 -239 0 -3 38 -3 37 -197 3 -197
2 -3 38 c-3 35 -5 37 -40 40 -35 3 -37 5 -40 40 -3 35 -5 37 -40 40 -35 3 -37
5 -40 40 -3 35 -5 37 -40 40 -35 3 -37 5 -40 40 -3 35 -5 37 -40 40 l-37 3 -3
77 -3 77 -77 3 -77 3 -3 37 c-3 35 -5 37 -40 40 -35 3 -37 5 -40 40 -3 35 -5
37 -40 40 l-38 3 -2 517 -3 517 -37 3 -37 3 -3 117 -3 117 -38 3 -37 3 2 197
3 197 35 5 c31 4 36 9 40 40 5 32 8 35 42 38 l37 3 3 77 3 77 35 0 c32 0 35
-3 40 -35 l5 -35 75 -5 75 -5 5 -35 c4 -31 9 -36 40 -40 32 -5 35 -8 38 -42 3
-35 5 -37 40 -40 34 -3 37 -6 42 -38 l5 -35 77 -3 77 -3 3 -37 3 -37 313 -3
c205 -1 312 1 313 8 1 5 1 19 1 30 0 11 0 25 -1 30 -1 6 -33 10 -76 10 l-75 0
0 39 c0 39 1 40 38 43 34 3 37 6 42 38 5 32 8 35 40 35 l35 0 5 -74 5 -75 35
0 c33 0 35 2 38 37 3 31 7 37 27 37 50 0 55 7 55 86 0 70 1 74 23 75 51 3 52
3 52 39 0 33 -2 35 -37 38 -35 3 -37 5 -40 40 -3 34 -6 37 -38 42 -32 5 -35 8
-38 42 -3 35 -5 37 -40 40 -35 3 -37 5 -40 41 -3 36 -4 37 -43 37 -39 0 -39 0
-39 40 l0 39 78 3 77 3 0 75 0 75 -30 1 c-16 1 -69 2 -117 3 l-88 1 0 35 c0
21 -5 35 -12 36 -12 1 -361 0 -380 -1 -5 0 -8 -16 -8 -35 l0 -34 -77 -3 -78
-3 -5 -35 c-4 -31 -9 -36 -40 -40 l-35 -5 -3 -78 -3 -78 -117 3 -117 3 0 75 0
75 37 3 37 3 3 117 3 117 37 3 37 3 3 157 3 157 37 3 37 3 3 77 3 77 37 3 c35
3 37 5 40 40 3 34 6 37 38 42 31 4 36 9 40 40 l5 35 78 3 77 3 0 33 c0 18 3
36 7 39 3 4 290 6 637 5 l631 -3 3 -37z m-1118 -1038 l0 -40 -40 0 -40 0 0
-40 0 -40 40 0 40 0 0 -40 0 -40 -79 0 -80 0 -3 38 -3 37 -117 3 -118 3 0 39
0 40 160 0 160 0 0 40 0 40 40 0 40 0 0 -40z m-642 -202 l3 -78 -41 0 c-40 0
-40 0 -40 39 0 39 -1 40 -37 43 -31 2 -39 7 -41 26 -7 47 2 53 80 50 l73 -3 3
-77z m162 -118 l0 -40 40 0 40 0 0 -40 0 -40 40 0 40 0 0 -40 0 -40 -40 0 -40
0 0 40 0 40 -40 0 -40 0 0 40 0 40 -40 0 -40 0 0 40 0 40 40 0 40 0 0 -40z
m1998 -42 l3 -78 -201 0 -201 0 3 38 c3 34 6 37 38 42 28 4 36 10 38 30 6 52
2 51 164 48 l153 -3 3 -77z m-1123 -38 c0 -33 -2 -35 -35 -35 -29 0 -36 4 -38
23 -6 40 5 54 40 50 30 -3 33 -6 33 -38z m727 -237 c3 -36 5 -38 41 -41 l37
-3 0 -79 0 -79 -37 -3 c-36 -3 -38 -5 -38 -38 l0 -35 195 -5 195 -5 5 -35 5
-35 75 0 75 0 3 38 c3 36 4 37 43 37 39 0 39 0 39 40 l0 40 -40 0 -40 0 0 40
0 40 40 0 40 0 0 41 0 40 38 -3 c35 -3 37 -5 37 -38 0 -33 -2 -35 -37 -38 -37
-3 -38 -4 -38 -42 0 -38 1 -39 38 -42 l37 -3 0 -155 0 -155 -115 -5 -115 -5
-3 -77 -3 -77 -37 -3 -37 -3 -3 -77 -3 -77 -37 -3 -37 -3 -3 -157 -3 -157 -37
-3 c-35 -3 -37 -5 -40 -40 -3 -37 -4 -38 -42 -38 l-39 0 -3 78 -3 77 -37 3
c-35 3 -37 5 -40 40 -3 35 -5 37 -40 40 l-37 3 -3 77 -3 77 -37 3 -38 3 -1 62
c-1 34 -3 103 -5 152 -2 50 -4 93 -4 98 0 4 -16 7 -35 7 l-35 0 0 200 0 200
40 0 40 0 0 73 c0 41 3 77 7 80 3 4 21 7 39 7 31 0 33 -2 36 -37z m553 -1123
c0 -33 -2 -35 -37 -38 l-37 -3 -3 -77 -3 -77 -35 0 -35 0 -3 78 -3 77 41 0 40
0 0 41 0 40 38 -3 c35 -3 37 -5 37 -38z"/>
<path d="M3280 2600 l0 -40 40 0 40 0 0 40 0 40 -40 0 -40 0 0 -40z"/>
</g>
</svg>
